<?xml version="1.0" encoding="utf-8"?>
<!-- Generator: Adobe Illustrator 25.4.1, SVG Export Plug-In . SVG Version: 6.00 Build 0)  -->
<svg version="1.1" id="grupo" xmlns="http://www.w3.org/2000/svg" xmlns:xlink="http://www.w3.org/1999/xlink" x="0px" y="0px"
	 viewBox="0 0 512 512" style="enable-background:new 0 0 512 512;" xml:space="preserve">
<style type="text/css">
	.st0{display:none;fill:none;}
	.st1{fill:#04ACF1;}
	.st2{fill:#1CECF4;}
	.st3{fill:#148CFC;}
	.st4{fill:none;stroke:#000000;stroke-width:8;stroke-miterlimit:10;}
	.st5{fill:#3C3A41;}
	.st6{fill:#57555C;}
	.st7{fill:#FCBF29;}
	.st8{fill:#FEA832;}
	.st9{fill:#FF941D;}
	.st10{fill:#FFAC46;}
	.st11{fill:#60C244;}
	.st12{fill:#00E2FF;}
	.st13{fill:#98CB51;}
	.st14{fill:#72ECFF;}
	.st15{fill:#C4D55F;}
	.st16{fill:#73553A;}
	.st17{fill:#896748;}
</style>
<g id="jarron_azul">
	<g id="Capa_4">
		<path class="st0" d="M170.58,233.28v-72.93c0,0-2.9-31.93,29.43-66.75c0,0,6.51-17.41-10.01-22.8h-67H57.65
			c0,0-17.63,4.56-11,22.8c0,0,27.74,26.51,29.62,58.85l0.28,80.83c0,0-114.46,43.52-38.19,183.62h171.39
			C209.76,416.89,284.57,291.72,170.58,233.28z"/>
		<g>
			<path class="st1" d="M118.23,72.6v343.47H33.58c0,0-79.46-129.32,38.19-183.62l-0.28-80.83c0,0,1.05-25.69-29.62-58.85
				c0,0-6.19-18.24,11-22.8h65.36V72.6z"/>
			<path class="st2" d="M13.91,289.29h103.97v65.77H10.3C10.3,355.06,0.47,320.52,13.91,289.29z"/>
		</g>
		<g>
			<path class="st3" d="M117.46,72.63V416.1h84.64c0,0,79.46-129.32-38.19-183.62l0.28-80.83c0,0-1.05-25.69,29.62-58.85
				c0,0,6.19-18.24-11-22.8h-65.36V72.63z"/>
			<path class="st1" d="M221.49,289.25H117.52v65.77H225.1C225.1,355.02,234.93,320.47,221.49,289.25z"/>
		</g>
		<g id="Capa_5">
		</g>
	</g>
</g>
<g id="Capa_15">
	<g id="Capa_20">
		<g id="Capa_21">
			<path class="st4" d="M13.91,289.29l207.58-0.05c0,0,12.16,32.18,3.61,65.77L10.3,355.06C10.3,355.06-1.33,319.01,13.91,289.29z"
				/>
		</g>
		<path class="st4" d="M33.58,416.06l168.52,0.03c0,0,79.71-130.04-38.19-183.62l0.28-80.83c0,0-1.47-24.79,29.62-58.85
			c0,0,5.98-18.68-11-22.8S52.87,69.97,52.87,69.97s-15.81,2.53-11,22.8c0,0,30.77,32.58,29.62,58.85l0.28,80.83
			C71.78,232.45-45.39,272.97,33.58,416.06z"/>
	</g>
</g>
<g id="jarron_amarillo">
	<path class="st5" d="M465.14,411.97l-108.81,0.28l0.04-333.33l61.53-0.11c0,0,27.46,9.97,0.31,48.62c0,0,89.73,21.63,86.97,144.03
		C505.18,271.47,507.48,336.66,465.14,411.97z"/>
	<path class="st6" d="M248.59,411.8l108.81,0.28l-0.04-333.33l-61.53-0.11c0,0-27.46,9.97-0.31,48.62c0,0-89.73,21.63-86.97,144.03
		C208.55,271.3,206.25,336.49,248.59,411.8z"/>
	<path class="st7" d="M357.01,192.73l-0.03-114.61l-57.68-0.09c0,0-33.52,3.83-4.76,47.47c0,0-48.55,15.57-70.64,65.04
		c0,0,38.19-2.07,57.75,31.06c0,0,15.42,19.79,39.11,0.23C320.77,221.83,335.73,201.13,357.01,192.73z"/>
	<g id="Capa_8">
		<path class="st8" d="M357.13,193.02l-0.25-114.9l57.31,0.09c0,0,34.82,0.42,5.37,47.21c0,0,52.31,16.57,74.39,73.17
			c0,0-11.81,8.28-20.09,18.56c0,0-20.4,29.76-46.94-1.53C400.38,184.31,376.61,189.76,357.13,193.02z"/>
	</g>
</g>
<g id="Capa_19">
	<g id="Capa_22">
	</g>
	<path class="st4" d="M248.59,411.8l216.56,0.17c0,0,39.29-66.66,40.03-140.5c0,0,11.5-106.96-85.62-146.06
		c0,0,27.43-39.11-1.66-46.6l-122.07-0.17c0,0-28.15,7.42-1.28,46.86c0,0-88.55,23.38-85.99,145.79
		C208.55,271.3,206.74,333.55,248.59,411.8z"/>
	<path class="st4" d="M223.91,190.54c0,0,35.7-2.84,57.75,31.06c0,0,14.65,19.67,39.11,0.23c0,0,17.26-23.56,36.35-28.82
		c0,0,41.85-13.23,69.79,22.59c0,0,23.38,30.91,46.94,1.53c0,0,13.23-14.89,20.09-18.56"/>
</g>
<g id="MARIPOSA">
	<g id="Capa_11">
		<g id="Capa_16">
			<path class="st9" d="M299.76,312.29v-1.05l0.28-37.17c16.21-37.31,52.12-42.2,52.12-42.2s5.87-0.7,7.41,4.33
				c1.54,5.03-3.07,7.69-3.07,7.69c-50.86,12.16-50.23,59.6-50.23,59.6v9.78c-2.2-0.79-4.58-1-6.69-0.92"/>
			<g id="Capa_17">
				<path class="st10" d="M398.13,381.52"/>
				<path class="st10" d="M300.37,311.78v-1.05l-0.28-37.17c-16.21-37.31-52.12-42.2-52.12-42.2s-5.87-0.7-7.41,4.33
					s3.07,7.69,3.07,7.69c50.86,12.16,50.23,59.6,50.23,59.6v9.78c2.2-0.79,4.58-1,6.69-0.92"/>
			</g>
		</g>
		<g id="Capa_13">
			<path class="st11" d="M309.35,427.38c0,0,9.69-5.14,10.48-16.66l-0.05-33.69l36.26-0.1c0,0,12.16-0.63,22.17-5.82
				c0,0,23.53,14.31,21.01,45.75c0,0-4.51,34.37-42.03,39.51C357.19,456.36,324.7,459.72,309.35,427.38z"/>
		</g>
		<circle class="st12" cx="354.12" cy="410.07" r="19.35"/>
	</g>
	<g id="Capa_12">
		<path class="st13" d="M289.75,427.23c0,0-9.97,28.12-43.3,29.38c0,0-31.2-0.14-42.97-28.86c0,0-15.93-30.74,17.36-56.59
			c0,0,10.38,5.59,25.61,5.87l33.24-0.03l-0.1,33.31C279.59,410.3,280.16,421.39,289.75,427.23z"/>
		<circle class="st14" cx="246.24" cy="410.35" r="19.35"/>
	</g>
	<g id="Capa_14">
		<path class="st13" d="M320.23,377.45l-0.07-47.44c0,0-0.42-3.84-1.5-6.71c0,0,15.06-27.42,40.49-40
			c25.43-12.58,48.63-12.3,48.63-12.3s4.75,1.41,5.22,5.24l0.1,42.39c0,0,1.52,34.22-33.69,52.35c0,0-6.01,4.54-23.48,6.29
			L320.23,377.45z"/>
		<path class="st15" d="M280.12,377.85l0.07-47.44c0,0,0.42-3.84,1.5-6.71c0,0-15.06-27.42-40.49-40s-48.63-12.3-48.63-12.3
			s-4.75,1.41-5.22,5.24l-0.1,42.39c0,0-1.52,34.22,33.69,52.35c0,0,6.01,4.54,23.48,6.29L280.12,377.85z"/>
	</g>
	<g id="Capa_9">
		<g>
			<path class="st16" d="M299.99,310.77l-0.02,119.59c0,0,17.56-0.33,20.44-18.93l-0.1-81.59
				C320.3,329.85,319.6,312.14,299.99,310.77z"/>
			<path class="st17" d="M289.28,426.95c0,0,3.04,2.72,10.72,3.42l-0.03-119.63c0,0-12.75-0.19-18.71,12.3c0,0-0.93,2.25-1.69,7.49
				l0.07,80.17C279.64,410.7,280.72,422.44,289.28,426.95z"/>
		</g>
	</g>
</g>
<g id="Capa_18">
	<path class="st4" d="M289.75,427.23c0,0-10.68,27.93-43.3,29.38c0,0-30.17-0.26-42.97-28.86c0,0-15.44-31.89,17.46-56.37
		c0,0-33.9-16.22-33.69-52.35l0.1-42.39c0,0,0.81-4.66,5.22-5.24c0,0,58.42-1.34,88.69,51.63c0,0,2.87-8.13,12.57-11.2l0.04-8.86
		c0,0,1.02-46.87-50.23-59.6c0,0-4.77-3.83-3.07-7.69c1.69-3.85,7.41-4.33,7.41-4.33s34.89,3.58,52.12,42.2
		c0,0,12.68-34.33,52.06-41.69c0,0,6.24-1,7.41,4.33c1.17,5.33-3.07,7.69-3.07,7.69s-47.18,7.67-50.23,59.6l-0.16,8.18
		c0,0,9.48,2.49,12.57,11.63c0,0,26.21-50.07,89.12-52.3c0,0,4.73,1.47,5.22,5.24l0.1,42.39c0,0,0.65,34.9-33.69,52.35
		c0,0,22.38,16.07,19.81,45.87c0,0-3.35,32.2-42.03,39.51c0,0-29.94,4.86-47.84-28.98c0,0-3.86,3.05-9.34,2.99
		S289.75,427.23,289.75,427.23z"/>
	<path class="st4" d="M279.54,358.93l0.03-28.4c0,0,0.88-18.51,20.4-19.79c0,0,18.08-0.2,20.33,19.11l0.1,81.59
		c0,0-0.95,16.72-20.4,18.93c0,0-18.35-0.38-20.37-19.67L279.54,358.93z"/>
</g>
</svg>
