<?xml version="1.0" encoding="utf-8"?>
<!-- Generator: Adobe Illustrator 25.4.1, SVG Export Plug-In . SVG Version: 6.00 Build 0)  -->
<svg version="1.1" id="Capa_1" xmlns="http://www.w3.org/2000/svg" xmlns:xlink="http://www.w3.org/1999/xlink" x="0px" y="0px"
	 viewBox="0 0 512 512" style="enable-background:new 0 0 512 512;" xml:space="preserve">
<style type="text/css">
	.st0{fill:#ED8989;stroke:#000000;stroke-width:15.6207;stroke-miterlimit:10;}
	.st1{fill:#FFC9C9;stroke:#000000;stroke-width:15.6207;stroke-miterlimit:10;}
	.st2{fill:#ED6F6D;stroke:#000000;stroke-width:19;stroke-miterlimit:10;}
	.st3{fill:none;stroke:#000000;stroke-width:1.071000e-02;stroke-miterlimit:10;}
	.st4{fill:#FF9494;stroke:#000000;stroke-width:14.6164;stroke-miterlimit:10;}
	.st5{fill:#FF9494;stroke:#000000;stroke-width:8.8696;stroke-miterlimit:10;}
</style>
<g id="Capa_3">
</g>
<g id="Capa_1_00000029752480333742104040000004095036355272772512_">
	<g id="Capa_2_00000091715819349708455010000001541404940516294572_">
		<ellipse class="st0" cx="299.4" cy="219.2" rx="155.8" ry="151.5"/>
		<ellipse class="st1" cx="266.6" cy="219.2" rx="155.8" ry="151.5"/>
		<ellipse class="st0" cx="232.5" cy="219.2" rx="155.8" ry="151.5"/>
		<ellipse class="st1" cx="196.7" cy="219.2" rx="155.8" ry="151.5"/>
		<path d="M164.9,183.1c-45.3,45.2-49.6,49.8-49.6,53c0,4.7,4.1,8.8,8.8,8.8c3.2,0,7.8-4.3,53-49.6c45.3-45.2,49.6-49.8,49.6-53
			c0-4.7-4.1-8.8-8.8-8.8C214.6,133.5,210,137.8,164.9,183.1z"/>
		<path d="M216.3,213.1c-17.5,17.3-19.6,19.9-19.6,23c0,4.7,4.1,8.8,8.8,8.8c3.1,0,5.7-2.1,23-19.6c17.5-17.3,19.6-19.9,19.6-23
			c0-4.7-4.1-8.8-8.8-8.8C236.2,193.5,233.6,195.6,216.3,213.1z"/>
	</g>
</g>
<g id="Capa_2">
	<path d="M462.1,411.9l41.2,5.6c0,0,11.2,0.9,8.1-12.2c-3-13.1-7.3-30.3-7.3-30.3l7.8-34.9c0,0,1.7-9.4-10.9-7.5
		c-12.6,1.9-38.4,5.7-38.4,5.7S455.2,369.6,462.1,411.9z"/>
	<path class="st2" d="M76.3,440.8c0,5.9,4.8,10.7,10.7,10.7h310.3c5.9,0,15.3-1.3,21-2.9c0,0,43.8-12.2,42.7-74.1
		c-1.1-61.9-45.4-73.4-45.4-73.4c-5.7-1.5-15.2-2.7-21.1-2.7H87.1c-5.9,0-10.7,4.8-10.7,10.7V440.8z"/>
	<g>
		<path d="M155,307v-17.2h44.4c0,0,20.3,14.7,31.5,33.9c11.2,19.2,10.4,46.1,10.4,46.1l0,6.3c0,0-0.5,6.6-8.3,7.6
			c-7.8,1.1-8.7-9.1-8.7-9.1s2.3-63.4-43.5-66.9c-45.8-3.5,0,0,0,0L155,307z"/>
		<path class="st3" d="M155,307v-17.2h44.4c0,0,20.3,14.7,31.5,33.9c11.2,19.2,10.4,46.1,10.4,46.1l0,6.3c0,0-0.5,6.6-8.3,7.6
			c-7.8,1.1-8.7-9.1-8.7-9.1s2.3-63.4-43.5-66.9c-45.8-3.5,0,0,0,0L155,307z"/>
		<path d="M155,307v-17.2h44.4c0,0,20.3,14.7,31.5,33.9c11.2,19.2,10.4,46.1,10.4,46.1l0,6.3c0,0-0.5,6.6-8.3,7.6
			c-7.8,1.1-8.7-9.1-8.7-9.1s2.3-63.4-43.5-66.9c-45.8-3.5,0,0,0,0L155,307z"/>
		<path d="M155,307v-17.2h44.4c0,0,20.3,14.7,31.5,33.9c11.2,19.2,10.4,46.1,10.4,46.1l0,6.3c0,0-0.5,6.6-8.3,7.6
			c-7.8,1.1-8.7-9.1-8.7-9.1s2.3-63.4-43.5-66.9c-45.8-3.5,0,0,0,0L155,307z"/>
	</g>
	<g>
		<path d="M318,307v-17.2h44.4c0,0,20.3,14.7,31.5,33.9c11.2,19.1,10.4,46.1,10.4,46.1l0,6.3c0,0-0.5,6.6-8.3,7.6s-8.7-9.1-8.7-9.1
			s2.3-63.4-43.5-66.9c-45.8-3.5,0,0,0,0L318,307z"/>
		<path class="st3" d="M318,307v-17.2h44.4c0,0,20.3,14.7,31.5,33.9c11.2,19.1,10.4,46.1,10.4,46.1l0,6.3c0,0-0.5,6.6-8.3,7.6
			s-8.7-9.1-8.7-9.1s2.3-63.4-43.5-66.9c-45.8-3.5,0,0,0,0L318,307z"/>
		<path d="M318,307v-17.2h44.4c0,0,20.3,14.7,31.5,33.9c11.2,19.1,10.4,46.1,10.4,46.1l0,6.3c0,0-0.5,6.6-8.3,7.6s-8.7-9.1-8.7-9.1
			s2.3-63.4-43.5-66.9c-45.8-3.5,0,0,0,0L318,307z"/>
		<path d="M318,307v-17.2h44.4c0,0,20.3,14.7,31.5,33.9c11.2,19.1,10.4,46.1,10.4,46.1l0,6.3c0,0-0.5,6.6-8.3,7.6s-8.7-9.1-8.7-9.1
			s2.3-63.4-43.5-66.9c-45.8-3.5,0,0,0,0L318,307z"/>
	</g>
	<g>
		<path d="M239.8,307v-17.2h44.4c0,0,20.3,14.7,31.5,33.9c11.2,19.2,10.4,46.1,10.4,46.1l0,6.3c0,0-0.5,6.6-8.3,7.6
			c-7.8,1.1-8.7-9.1-8.7-9.1s2.3-63.4-43.5-66.9c-45.8-3.5,0,0,0,0L239.8,307z"/>
		<path class="st3" d="M239.8,307v-17.2h44.4c0,0,20.3,14.7,31.5,33.9c11.2,19.2,10.4,46.1,10.4,46.1l0,6.3c0,0-0.5,6.6-8.3,7.6
			c-7.8,1.1-8.7-9.1-8.7-9.1s2.3-63.4-43.5-66.9c-45.8-3.5,0,0,0,0L239.8,307z"/>
		<path d="M239.8,307v-17.2h44.4c0,0,20.3,14.7,31.5,33.9c11.2,19.2,10.4,46.1,10.4,46.1l0,6.3c0,0-0.5,6.6-8.3,7.6
			c-7.8,1.1-8.7-9.1-8.7-9.1s2.3-63.4-43.5-66.9c-45.8-3.5,0,0,0,0L239.8,307z"/>
		<path d="M239.8,307v-17.2h44.4c0,0,20.3,14.7,31.5,33.9c11.2,19.2,10.4,46.1,10.4,46.1l0,6.3c0,0-0.5,6.6-8.3,7.6
			c-7.8,1.1-8.7-9.1-8.7-9.1s2.3-63.4-43.5-66.9c-45.8-3.5,0,0,0,0L239.8,307z"/>
	</g>
</g>
<ellipse class="st4" cx="91.7" cy="375" rx="82" ry="78.8"/>
<ellipse class="st5" cx="68.7" cy="390.6" rx="13" ry="11.8"/>
<circle class="st4" cx="98.4" cy="346.2" r="2.6"/>
</svg>
