<?xml version="1.0" encoding="utf-8"?>
<!-- Generator: Adobe Illustrator 26.0.3, SVG Export Plug-In . SVG Version: 6.00 Build 0)  -->
<svg version="1.1" id="Layer_1" xmlns="http://www.w3.org/2000/svg" xmlns:xlink="http://www.w3.org/1999/xlink" x="0px" y="0px"
	 viewBox="0 0 512 512" style="enable-background:new 0 0 512 512;" xml:space="preserve">
<style type="text/css">
	.st0{fill:#E0EBFC;}
	.st1{stroke:#000000;stroke-width:5;stroke-miterlimit:10;}
	.st2{fill:#6BDDDD;}
	.st3{stroke:#000000;stroke-width:8;stroke-miterlimit:10;}
	.st4{fill:#EAA97D;}
	.st5{fill:#4671C6;}
	.st6{fill:#A4C9FF;}
</style>
<g>
	<g>
		<g>
			<g>
				<g>
					<path class="st0" d="M142.4,84.4h39.7V195h-39.7V84.4z"/>
				</g>
			</g>
		</g>
	</g>
	<g>
		<g>
			<g>
				<g>
					<path class="st0" d="M95.8,61.7c-1.6,0-2.9,1.3-2.9,2.9v16.9c0,1.6,1.3,2.9,2.9,2.9h131.7v19.5h36.9V75.7c0-7.7-6.3-14-14-14
						L95.8,61.7L95.8,61.7z"/>
				</g>
			</g>
		</g>
	</g>
	<g>
		<g>
			<g>
				<g>
					<path class="st1" d="M182.1,199h-39.7c-2.2,0-4-1.8-4-4V84.4c0-2.2,1.8-4,4-4h39.7c2.2,0,4,1.8,4,4V195
						C186.1,197.2,184.3,199,182.1,199z M146.4,191h31.7V88.4h-31.7V191z"/>
				</g>
			</g>
		</g>
	</g>
	<g>
		<g>
			<g>
				<g>
					<path class="st1" d="M264.4,107.9h-36.9c-2.2,0-4-1.8-4-4V88.4H95.8c-3.8,0-6.9-3.1-6.9-6.9V64.6c0-3.8,3.1-6.9,6.9-6.9h154.6
						c9.9,0,18,8.1,18,18v28.2C268.4,106.1,266.6,107.9,264.4,107.9z M231.5,99.9h28.9V75.7c0-5.5-4.5-10-10-10H96.9v14.7h130.6
						c2.2,0,4,1.8,4,4V99.9z"/>
				</g>
			</g>
		</g>
	</g>
	<g>
		<g>
			<g>
				<g>
					<path class="st2" d="M192.9,263.8h-61.2c-4.8,0-8.7-3.9-8.7-8.7V141.4c0-4.8,3.9-8.7,8.7-8.7h61.2c4.8,0,8.7,3.9,8.7,8.7V255
						C201.6,259.9,197.7,263.8,192.9,263.8L192.9,263.8z"/>
				</g>
			</g>
		</g>
	</g>
	<g>
		<g>
			<g>
				<g>
					<path class="st3" d="M192.9,267.8h-61.2c-7,0-12.7-5.7-12.7-12.7V141.4c0-7,5.7-12.7,12.7-12.7h61.2c7,0,12.7,5.7,12.7,12.7
						V255C205.6,262.1,199.9,267.8,192.9,267.8z M131.7,136.6c-2.6,0-4.7,2.1-4.7,4.7V255c0,2.6,2.1,4.7,4.7,4.7h61.2
						c2.6,0,4.7-2.1,4.7-4.7V141.4c0-2.6-2.1-4.7-4.7-4.7L131.7,136.6z"/>
				</g>
			</g>
		</g>
	</g>
	<g>
		<g>
			<g>
				<g>
					<path class="st4" d="M383.6,496c-11.2,0-20.3-9.1-20.3-20.3V161h40.7v314.7C403.9,486.9,394.8,496,383.6,496L383.6,496z"/>
				</g>
			</g>
		</g>
	</g>
	<g>
		<g>
			<g>
				<g>
					<path class="st3" d="M383.6,500c-13.4,0-24.3-10.9-24.3-24.3V161c0-2.2,1.8-4,4-4h40.7c2.2,0,4,1.8,4,4v314.7
						C407.9,489.1,397,500,383.6,500z M367.2,165v310.7c0,9,7.3,16.3,16.3,16.3s16.3-7.3,16.3-16.3V165L367.2,165z"/>
				</g>
			</g>
		</g>
	</g>
	<g>
		<g>
			<g>
				<g>
					<path class="st2" d="M213.5,168.2h-51.2h-51.2c-39.2,24.9-63,68.1-63,114.6V480c0,8.8,7.2,16,16,16h98.2h98.2
						c8.8,0,16-7.2,16-16V282.8C276.5,236.4,252.7,193.1,213.5,168.2z"/>
				</g>
			</g>
		</g>
	</g>
	<g>
		<g>
			<g>
				<g>
					<path class="st5" d="M103.5,452.6c-6.6,0-12-5.4-12-12V282.8c0-26.3,10.9-50.7,29.9-68c2.2-2,5.1-3.2,8.1-3.2h65.6
						c3,0,5.9,1.1,8.1,3.2c18.9,17.3,29.9,41.8,29.9,68v157.8c0,6.6-5.4,12-12,12H103.5z"/>
				</g>
			</g>
		</g>
	</g>
	<g>
		<g>
			<g>
				<g>
					<ellipse class="st4" cx="384.1" cy="130.5" rx="79.8" ry="114.5"/>
				</g>
			</g>
		</g>
	</g>
	<g>
		<g>
			<g>
				<g>
					<ellipse class="st5" cx="384.1" cy="130.5" rx="59" ry="94.4"/>
				</g>
			</g>
		</g>
	</g>
	<g>
		<g>
			<g>
				<g>
					<circle class="st0" cx="383.6" cy="48.1" r="10.1"/>
				</g>
			</g>
		</g>
	</g>
	<g>
		<g>
			<g>
				<g>
					<circle class="st0" cx="383.6" cy="88.1" r="10.1"/>
				</g>
			</g>
		</g>
	</g>
	<g>
		<g>
			<g>
				<g>
					<circle class="st0" cx="383.6" cy="128.1" r="10.1"/>
				</g>
			</g>
		</g>
	</g>
	<g>
		<g>
			<g>
				<g>
					<circle class="st0" cx="383.6" cy="168.1" r="10.1"/>
				</g>
			</g>
		</g>
	</g>
	<g>
		<g>
			<g>
				<g>
					<circle class="st0" cx="383.6" cy="208.1" r="10.1"/>
				</g>
			</g>
		</g>
	</g>
	<g>
		<g>
			<g>
				<g>
					<circle class="st0" cx="423.6" cy="68.1" r="10.1"/>
				</g>
			</g>
		</g>
	</g>
	<g>
		<g>
			<g>
				<g>
					<circle class="st0" cx="423.6" cy="108.1" r="10.1"/>
				</g>
			</g>
		</g>
	</g>
	<g>
		<g>
			<g>
				<g>
					<circle class="st0" cx="423.6" cy="148.1" r="10.1"/>
				</g>
			</g>
		</g>
	</g>
	<g>
		<g>
			<g>
				<g>
					<circle class="st0" cx="343.6" cy="68.1" r="10.1"/>
				</g>
			</g>
		</g>
	</g>
	<g>
		<g>
			<g>
				<g>
					<circle class="st0" cx="343.6" cy="108.1" r="10.1"/>
				</g>
			</g>
		</g>
	</g>
	<g>
		<g>
			<g>
				<g>
					<circle class="st0" cx="343.6" cy="148.1" r="10.1"/>
				</g>
			</g>
		</g>
	</g>
	<g>
		<g>
			<g>
				<g>
					<circle class="st0" cx="423.6" cy="188.1" r="10.1"/>
				</g>
			</g>
		</g>
	</g>
	<g>
		<g>
			<g>
				<g>
					<circle class="st0" cx="343.6" cy="188.1" r="10.1"/>
				</g>
			</g>
		</g>
	</g>
	<g>
		<g>
			<g>
				<g>
					<path class="st3" d="M384.1,249c-46.2,0-83.8-53.2-83.8-118.5S337.9,12,384.1,12s83.8,53.2,83.8,118.5S430.3,249,384.1,249z
						 M384.1,20c-41.8,0-75.8,49.6-75.8,110.5s34,110.5,75.8,110.5s75.8-49.6,75.8-110.5S425.9,20,384.1,20z"/>
				</g>
			</g>
		</g>
	</g>
	<g>
		<g>
			<g>
				<g>
					<path d="M383.6,62.3c-7.8,0-14.1-6.3-14.1-14.1S375.8,34,383.6,34s14.1,6.3,14.1,14.1S391.4,62.3,383.6,62.3z M383.6,42
						c-3.4,0-6.1,2.8-6.1,6.1s2.8,6.1,6.1,6.1s6.1-2.8,6.1-6.1S387,42,383.6,42z"/>
				</g>
			</g>
		</g>
	</g>
	<g>
		<g>
			<g>
				<g>
					<path d="M383.6,102.3c-7.8,0-14.1-6.3-14.1-14.1S375.8,74,383.6,74s14.1,6.3,14.1,14.1S391.4,102.3,383.6,102.3z M383.6,82
						c-3.4,0-6.1,2.8-6.1,6.1s2.8,6.1,6.1,6.1s6.1-2.8,6.1-6.1S387,82,383.6,82z"/>
				</g>
			</g>
		</g>
	</g>
	<g>
		<g>
			<g>
				<g>
					<path d="M383.6,142.3c-7.8,0-14.1-6.3-14.1-14.1s6.3-14.1,14.1-14.1s14.1,6.3,14.1,14.1S391.4,142.3,383.6,142.3z M383.6,122
						c-3.4,0-6.1,2.8-6.1,6.1s2.8,6.1,6.1,6.1s6.1-2.8,6.1-6.1S387,122,383.6,122z"/>
				</g>
			</g>
		</g>
	</g>
	<g>
		<g>
			<g>
				<g>
					<path d="M383.6,182.3c-7.8,0-14.1-6.3-14.1-14.1s6.3-14.1,14.1-14.1s14.1,6.3,14.1,14.1S391.4,182.3,383.6,182.3z M383.6,162
						c-3.4,0-6.1,2.8-6.1,6.1s2.8,6.1,6.1,6.1s6.1-2.8,6.1-6.1S387,162,383.6,162z"/>
				</g>
			</g>
		</g>
	</g>
	<g>
		<g>
			<g>
				<g>
					<path d="M383.6,222.3c-7.8,0-14.1-6.3-14.1-14.1s6.3-14.1,14.1-14.1s14.1,6.3,14.1,14.1S391.4,222.3,383.6,222.3z M383.6,202
						c-3.4,0-6.1,2.8-6.1,6.1s2.8,6.1,6.1,6.1s6.1-2.8,6.1-6.1S387,202,383.6,202z"/>
				</g>
			</g>
		</g>
	</g>
	<g>
		<g>
			<g>
				<g>
					<path d="M423.6,82.3c-7.8,0-14.1-6.3-14.1-14.1S415.8,54,423.6,54s14.1,6.3,14.1,14.1S431.4,82.3,423.6,82.3z M423.6,62
						c-3.4,0-6.1,2.8-6.1,6.1s2.8,6.1,6.1,6.1s6.1-2.8,6.1-6.1S427,62,423.6,62z"/>
				</g>
			</g>
		</g>
	</g>
	<g>
		<g>
			<g>
				<g>
					<path d="M423.6,122.3c-7.8,0-14.1-6.3-14.1-14.1S415.8,94,423.6,94s14.1,6.3,14.1,14.1S431.4,122.3,423.6,122.3z M423.6,102
						c-3.4,0-6.1,2.8-6.1,6.1s2.8,6.1,6.1,6.1s6.1-2.8,6.1-6.1S427,102,423.6,102z"/>
				</g>
			</g>
		</g>
	</g>
	<g>
		<g>
			<g>
				<g>
					<path d="M423.6,162.3c-7.8,0-14.1-6.3-14.1-14.1s6.3-14.1,14.1-14.1s14.1,6.3,14.1,14.1S431.4,162.3,423.6,162.3z M423.6,142
						c-3.4,0-6.1,2.8-6.1,6.1s2.8,6.1,6.1,6.1s6.1-2.8,6.1-6.1S427,142,423.6,142z"/>
				</g>
			</g>
		</g>
	</g>
	<g>
		<g>
			<g>
				<g>
					<path d="M343.6,82.3c-7.8,0-14.1-6.3-14.1-14.1S335.8,54,343.6,54s14.1,6.3,14.1,14.1S351.4,82.3,343.6,82.3z M343.6,62
						c-3.4,0-6.1,2.8-6.1,6.1s2.8,6.1,6.1,6.1s6.1-2.8,6.1-6.1S347,62,343.6,62z"/>
				</g>
			</g>
		</g>
	</g>
	<g>
		<g>
			<g>
				<g>
					<path d="M343.6,122.3c-7.8,0-14.1-6.3-14.1-14.1S335.8,94,343.6,94s14.1,6.3,14.1,14.1S351.4,122.3,343.6,122.3z M343.6,102
						c-3.4,0-6.1,2.8-6.1,6.1s2.8,6.1,6.1,6.1s6.1-2.8,6.1-6.1S347,102,343.6,102z"/>
				</g>
			</g>
		</g>
	</g>
	<g>
		<g>
			<g>
				<g>
					<path d="M343.6,162.3c-7.8,0-14.1-6.3-14.1-14.1s6.3-14.1,14.1-14.1s14.1,6.3,14.1,14.1S351.4,162.3,343.6,162.3z M343.6,142
						c-3.4,0-6.1,2.8-6.1,6.1s2.8,6.1,6.1,6.1s6.1-2.8,6.1-6.1S347,142,343.6,142z"/>
				</g>
			</g>
		</g>
	</g>
	<g>
		<g>
			<g>
				<g>
					<path d="M423.6,202.3c-7.8,0-14.1-6.3-14.1-14.1s6.3-14.1,14.1-14.1s14.1,6.3,14.1,14.1S431.4,202.3,423.6,202.3z M423.6,182
						c-3.4,0-6.1,2.8-6.1,6.1s2.8,6.1,6.1,6.1s6.1-2.8,6.1-6.1S427,182,423.6,182z"/>
				</g>
			</g>
		</g>
	</g>
	<g>
		<g>
			<g>
				<g>
					<path d="M343.6,202.3c-7.8,0-14.1-6.3-14.1-14.1s6.3-14.1,14.1-14.1s14.1,6.3,14.1,14.1S351.4,202.3,343.6,202.3z M343.6,182
						c-3.4,0-6.1,2.8-6.1,6.1s2.8,6.1,6.1,6.1s6.1-2.8,6.1-6.1S347,182,343.6,182z"/>
				</g>
			</g>
		</g>
	</g>
	<g>
		<g>
			<g>
				<g>
					<path class="st3" d="M260.5,500H64.1c-11,0-20-9-20-20V282.8c0-48.1,24.2-92.2,64.9-118c0.6-0.4,1.4-0.6,2.1-0.6h102.4
						c0.8,0,1.5,0.2,2.1,0.6c40.6,25.8,64.9,69.9,64.9,118V480C280.5,491,271.5,500,260.5,500L260.5,500z M112.3,172.2
						c-37.7,24.4-60.2,65.6-60.2,110.6V480c0,6.6,5.4,12,12,12h196.4c6.6,0,12-5.4,12-12V282.8c0-45-22.5-86.2-60.2-110.6H112.3z"/>
				</g>
			</g>
		</g>
	</g>
	<g>
		<g>
			<g>
				<g>
					<path class="st6" d="M360.1,496H194.7c-13.3,0-24-10.7-24-24v-78.7c0-13.3,10.7-24,24-24h165.3c13.3,0,24,10.7,24,24V472
						C384.1,485.3,373.3,496,360.1,496z"/>
				</g>
			</g>
		</g>
	</g>
	<g>
		<g>
			<g>
				<g>
					<path d="M346.1,470H208.7c-6.6,0-12-5.4-12-12v-50.7c0-6.6,5.4-12,12-12h137.3c6.6,0,12,5.4,12,12V458
						C358.1,464.6,352.7,470,346.1,470z M208.7,403.3c-2.2,0-4,1.8-4,4V458c0,2.2,1.8,4,4,4h137.3c2.2,0,4-1.8,4-4v-50.7
						c0-2.2-1.8-4-4-4H208.7z"/>
				</g>
			</g>
		</g>
	</g>
	<g>
		<g>
			<g>
				<g>
					<path class="st3" d="M360.1,500H194.7c-15.4,0-28-12.6-28-28v-78.7c0-15.4,12.6-28,28-28h165.3c15.4,0,28,12.6,28,28V472
						C388.1,487.4,375.5,500,360.1,500z M194.7,373.3c-11,0-20,9-20,20V472c0,11,9,20,20,20h165.3c11,0,20-9,20-20v-78.7
						c0-11-9-20-20-20H194.7z"/>
				</g>
			</g>
		</g>
	</g>
</g>
</svg>
