<?xml version="1.0" encoding="utf-8"?>
<!-- Generator: Adobe Illustrator 26.0.3, SVG Export Plug-In . SVG Version: 6.00 Build 0)  -->
<svg version="1.1" id="Capa_1" xmlns="http://www.w3.org/2000/svg" xmlns:xlink="http://www.w3.org/1999/xlink" x="0px" y="0px"
	 viewBox="0 0 512 512" style="enable-background:new 0 0 512 512;" xml:space="preserve">
<style type="text/css">
	.st0{fill:#DCD2CD;}
	.st1{fill:#F0E9E6;}
	.st2{fill:none;stroke:#000000;stroke-width:13.1738;stroke-miterlimit:10;}
	.st3{fill:#9F6E50;}
	.st4{fill:#B57F5F;}
	.st5{fill:#D19A6E;}
	.st6{fill:#E2A975;}
	.st7{fill:#F0E9E6;stroke:#000000;stroke-width:12.2666;stroke-miterlimit:10.0002;}
	.st8{display:none;fill:#B57F5F;}
	.st9{display:none;fill:#9F6E50;}
	.st10{display:none;fill:#DCD2CD;}
	.st11{display:none;fill:#F0E9E6;}
	.st12{display:none;fill:#E2A975;}
	.st13{display:none;fill:#C2D5BF;}
	.st14{display:none;fill:#A6C1AD;}
	.st15{fill:#8D472E;}
	.st16{fill:#AB5034;stroke:#000000;stroke-width:6.6345;stroke-miterlimit:10;}
	.st17{fill:#6F3D28;stroke:#000000;stroke-width:6.6345;stroke-miterlimit:10;}
	.st18{fill:#42291B;stroke:#000000;stroke-width:6.6345;stroke-miterlimit:10;}
	.st19{fill:#989487;}
	.st20{fill:#ADA999;}
	.st21{fill:#A6C1AD;}
	.st22{fill:#C2D5BF;}
</style>
<g id="Capa_1_00000178191852077438126010000002179083971903071928_">
	
		<image style="overflow:visible;enable-background:new    ;" width="427" height="332" xlink:href="Captura de pantalla 2022-09-09 112759.png"  transform="matrix(1.1593 0 0 1.1593 2183 498)">
	</image>
	
		<image style="overflow:visible;enable-background:new    ;" width="382" height="368" xlink:href="Captura de pantalla 2022-09-09 112603.png"  transform="matrix(1.3419 0 0 1.3419 2183 -50)">
	</image>
</g>
<g id="saco">
	<g>
		<g>
			<g>
				<g>
					<path class="st0" d="M149.4,127.6c0,2.2-0.2,4.4-0.5,6.4c-3,18.8-19.4,33.1-39,33.1c-2.3,0-4.6-0.2-6.7-0.6
						c-18.6-3.1-32.9-19.5-32.9-39s14.2-35.9,32.9-39c2.1-0.4,4.4-0.6,6.7-0.6c4.3,0,8.4,0.7,12.3,1.9c4.8,1.5,9.1,4,12.9,7.1
						c8.7,7.1,14.3,17.9,14.5,30C149.4,127.2,149.4,127.4,149.4,127.6z"/>
					<path class="st0" d="M214,96.4c0,6.7-1.6,13-4.6,18.5c-1.3,2.4-2.8,4.8-4.7,6.9c-7.3,8.7-18.1,14.2-30.4,14.2
						c-2.3,0-4.6-0.2-6.7-0.6c-6.9-1.2-13.2-4.2-18.4-8.4c-8.7-7.1-14.3-17.9-14.5-30c0-0.2,0-0.4,0-0.6c0-19.6,14.2-35.9,32.9-39
						c2.1-0.4,4.4-0.6,6.7-0.6c7.2,0,14,1.9,19.8,5.3c3.2,1.8,6.2,4.2,8.7,6.9C209.9,76,214,85.7,214,96.4z"/>
					<circle class="st0" cx="238" cy="87.4" r="39.6"/>
					<circle class="st0" cx="287.1" cy="124.2" r="39.6"/>
				</g>
				<g>
					<path class="st1" d="M136,127.6c0,19.6-14.2,35.9-32.9,39c-18.6-3.1-32.9-19.5-32.9-39s14.2-35.9,32.9-39
						c6.9,1.2,13.2,4.2,18.4,8.4c8.7,7.1,14.3,17.9,14.5,30C136,127.2,136,127.4,136,127.6z"/>
					<path class="st1" d="M201.8,97.5c0,1.2-0.1,2.5-0.2,3.7c-0.5,5.3-2,10.3-4.4,14.8c-5.7,10.6-16,18.4-28.4,20.6
						c-2.1,0.4-4.4,0.6-6.7,0.6c-4.3,0-8.4-0.7-12.3-1.9c-4.8-1.5-9.1-4-12.9-7.1c-8.7-7.1-14.3-17.9-14.5-30c0-0.2,0-0.4,0-0.6
						c0-2.2,0.2-4.4,0.5-6.4c4.8,1.5,9.1,4,12.9,7.1c0-0.2,0-0.4,0-0.6c0-19.6,14.2-35.9,32.9-39c8.5,1.4,16.1,5.7,21.9,11.7
						c4,4.2,7.1,9.2,9,14.8C201,88.8,201.8,93,201.8,97.5z"/>
					<circle class="st1" cx="224.7" cy="87.4" r="39.6"/>
					<circle class="st1" cx="273.7" cy="124.2" r="39.6"/>
				</g>
				<g>
					<path class="st2" d="M151,122.5"/>
					<path class="st2" d="M70.3,122.5c0-19.7,14.5-36.1,33.5-39.3c2.2-0.4,4.5-0.6,6.8-0.6c4.4,0,8.5,0.7,12.5,1.9
						c4.9,1.5,11.9,5.3,15.7,8.4"/>
					<path class="st2" d="M131,91.9c19-19,20-37.1,38.7-40.1c2.2-0.4,4.5-0.6,6.8-0.6c7.3,0,14.3,1.9,20.2,5.4
						c3.3,1.9,6.3,4.3,8.9,6.9"/>
					<path class="st2" d="M176.6,130.9"/>
					<path class="st2" d="M201,82.1"/>
					<path class="st2" d="M283.8,85.2c0-22-20.2-43-42.5-43c-17.4,0-28.9,5.1-43.5,19.6"/>
					<path class="st2" d="M251,119.1"/>
					<path class="st2" d="M328.4,120.9c0-22-14.7-41.5-37-41.5c-3.5,0-8.8-1.6-12.1-0.8"/>
				</g>
			</g>
			<g>
				<path class="st3" d="M365.7,488.8H25.4c-22.9-8.1-17-42.2-6-56.2c0.4-0.5,0.8-1,1.2-1.5l24.4-26.9l36.8-40.4l100.8-110.9l1-1.1
					c6.7-7.4,16.8-7.4,23.5,0l101.9,112l16.8,18.5l25.6,28.2l18.7,20.6C404,466.4,378.7,488.8,365.7,488.8z"/>
				<path class="st3" d="M351.7,253.5v183H45.1v-183c0-28.9,23.4-52.4,52.4-52.4h202C328.3,201.1,351.7,224.5,351.7,253.5z"/>
				<path class="st4" d="M340.1,488.8H25.4c-22.9-8.1-17-42.2-6-56.2c0.4-0.5,0.8-1,1.2-1.5l24.4-26.9V376l11.1-12.3l101.9-112
					c6.7-7.4,16.8-7.4,23.5,0l1,1.1l100.9,111l42.5,46.7l18.7,20.6c1.7,1.8,3.3,3.6,4.8,5.4C375.9,468.8,352.3,488.8,340.1,488.8z"
					/>
				<path class="st4" d="M326.1,253.5v183H19.4v-4c0.4-0.5,0.8-1,1.2-1.5l24.4-26.9V253.5c0-28.9,23.4-52.4,52.4-52.4h176.3
					C302.7,201.1,326.1,224.5,326.1,253.5z"/>
			</g>
			<g>
				<path class="st5" d="M361.9,136.1v43.2c0,12.4-10,22.5-22.5,22.5H57.7c-12.4,0-22.5-10-22.5-22.5v-43.2
					c0-12.4,10-22.5,22.5-22.5h281.7C351.8,113.6,361.9,123.6,361.9,136.1z"/>
				<path class="st6" d="M341.6,136.1v43.2c0,12.4-10,22.5-22.5,22.5H57.4c-12.4,0-22.5-10-22.5-22.5v-43.2
					c0-12.4,10-22.5,22.5-22.5h261.7C331.6,113.6,341.6,123.6,341.6,136.1z"/>
			</g>
			<g>
				
					<ellipse transform="matrix(0.7432 -0.6691 0.6691 0.7432 -167.0938 192.5165)" class="st7" cx="167.2" cy="313.9" rx="15.1" ry="24.8"/>
				
					<ellipse transform="matrix(0.7432 -0.6691 0.6691 0.7432 -209.7885 210.6041)" class="st7" cx="169.5" cy="378.6" rx="15.1" ry="24.8"/>
				
					<ellipse transform="matrix(0.6691 -0.7432 0.7432 0.6691 -184.659 286.7437)" class="st7" cx="229.7" cy="350.7" rx="24.8" ry="15.1"/>
				
					<ellipse transform="matrix(0.6691 -0.7432 0.7432 0.6691 -139.058 266.3865)" class="st7" cx="229.6" cy="289.3" rx="24.8" ry="15.1"/>
			</g>
		</g>
		<g>
			<path class="st2" d="M351.8,408.2l1.8,2l18.7,20.6c33.5,35.4,8.2,57.8-4.8,57.8H27.4c-22.9-8.1-17-42.2-6-56.2
				c0.4-0.5,0.8-1,1.2-1.5l21.9-24l2.5-2.8l2-2.2"/>
			<path class="st2" d="M47,363.7c0,6.6,0-26.7,0-26.7v-83.9c0-28.9,23.4-52.4,52.4-52.4h202c28.9,0,52.4,23.4,52.4,52.4l-0.2,158.2
				"/>
			<path class="st2" d="M46.8,405.7c0,0,0.1-20.6,0.1-15.9"/>
		</g>
		<path class="st2" d="M364.7,135v43.2c0,12.4-10,22.5-22.5,22.5H60.4c-12.4,0-22.5-10-22.5-22.5V135c0-12.4,10-22.5,22.5-22.5
			h281.8C354.6,112.5,364.7,122.5,364.7,135z"/>
	</g>
	<rect x="-132.4" y="31.8" class="st8" width="70.9" height="70.9"/>
	<rect x="-130.8" y="-58.9" class="st9" width="70.9" height="70.9"/>
	<rect x="-132.9" y="470.1" class="st10" width="70.9" height="70.9"/>
	<rect x="-131.8" y="122.5" class="st11" width="70.9" height="70.9"/>
	<rect x="-131.8" y="217.8" class="st12" width="70.9" height="70.9"/>
	<rect x="-132.9" y="301.9" class="st13" width="70.9" height="70.9"/>
	<rect x="-132.9" y="386" class="st14" width="70.9" height="70.9"/>
</g>
<g id="sopafrji">
	<g>
		<g>
			<g>
				
					<ellipse transform="matrix(4.837940e-02 -0.9988 0.9988 4.837940e-02 -110.3387 660.5006)" class="st15" cx="291.5" cy="388.2" rx="39.4" ry="37.3"/>
				
					<ellipse transform="matrix(4.837940e-02 -0.9988 0.9988 4.837940e-02 -53.7197 706.8291)" class="st15" cx="344.1" cy="381.6" rx="39.4" ry="37.3"/>
				
					<ellipse transform="matrix(4.837940e-02 -0.9988 0.9988 4.837940e-02 -20.8799 734.2859)" class="st15" cx="374.9" cy="378.1" rx="39.4" ry="37.3"/>
				
					<ellipse transform="matrix(4.837940e-02 -0.9988 0.9988 4.837940e-02 12.8218 773.2415)" class="st15" cx="412.2" cy="379.9" rx="39.4" ry="37.3"/>
			</g>
			<path class="st16" d="M294.2,336.5c0,0-8.1-2.2-11.7,4.3c-1.2,2.2-1.3,5-0.3,7.3c1,2.3,3.1,5.7,7.6,9.3c0.5,0.5,1.2,0.8,1.8,1.1
				c3.7,1.7,17,6.8,29.2,0.2c0.6-0.3,1.1-0.7,1.5-1.1l5.8-5.2c2-1.8,3.1-4.5,2.8-7.2c0,0,0-0.1,0-0.2c-0.5-3.3-3.1-6.1-6.5-6.9
				c-2.3-0.5-5.3-0.6-8,1l-3.5,2.6c-1,0.8-2.2,1.3-3.4,1.5c-1.1,0.2-2.5,0.4-4,0.3c-2.5-0.1-4.8-1.4-6.3-3.4
				C298.2,338.9,296.3,336.6,294.2,336.5z"/>
			<path class="st16" d="M241.7,356.7c0,0-7.3,4.1-5.3,11.2c0.7,2.4,2.5,4.5,4.9,5.5c2.4,1,6.2,1.8,12,1.3c0.7-0.1,1.4-0.2,2.1-0.5
				c3.9-1.4,16.9-7.2,21-20.3c0.2-0.6,0.3-1.2,0.3-1.9l0.5-7.8c0.2-2.7-0.9-5.4-3-7.1L274,337c-2.7-2-6.5-2.1-9.4-0.4
				c-2,1.2-4.3,3.2-5,6.4l-0.7,4.4c-0.2,1.3-0.7,2.4-1.4,3.5c-0.6,0.9-1.5,2-2.6,2.9c-1.9,1.6-4.5,2.3-6.9,1.9
				C246.2,355.5,243.2,355.3,241.7,356.7z"/>
			<path class="st16" d="M396.1,328.5c0,0-3.4-7.7-10.7-6.2c-2.5,0.5-4.7,2.1-5.8,4.5c-1.2,2.3-2.3,6.1-2.3,11.8
				c0,0.7,0.1,1.4,0.3,2.1c1.1,4,5.8,17.4,18.4,22.6c0.6,0.2,1.2,0.4,1.8,0.5l7.7,1.1c2.6,0.4,5.5-0.4,7.3-2.4l0.1-0.1
				c2.3-2.5,2.6-6.3,1.1-9.3c-1.1-2.1-2.8-4.5-5.9-5.5l-4.3-1c-1.2-0.3-2.4-0.9-3.4-1.7c-0.8-0.7-1.9-1.7-2.7-2.8
				c-1.5-2-1.9-4.6-1.3-7C396.9,333.1,397.4,330.1,396.1,328.5z"/>
			<path class="st16" d="M432.8,355c0,0-6.8-4.9-4-11.8c1-2.3,3-4.2,5.5-4.9c2.5-0.7,6.4-1.1,12.1,0.1c0.7,0.1,1.4,0.4,2,0.7
				c3.6,1.9,15.9,9,18.4,22.5c0.1,0.6,0.1,1.3,0.1,1.9l-0.4,7.8c-0.1,2.7-1.5,5.3-3.7,6.7l-0.1,0.1c-2.9,1.7-6.7,1.4-9.4-0.7
				c-1.9-1.5-3.9-3.7-4.2-6.9l-0.2-4.4c-0.1-1.3-0.4-2.5-1-3.6c-0.5-1-1.3-2.2-2.2-3.2c-1.7-1.8-4.2-2.8-6.6-2.7
				C437.3,356.6,434.2,356.5,432.8,355z"/>
			<path class="st17" d="M275.7,375.5c0,0-6.8-4.9-4-11.8c1-2.3,3-4.2,5.5-4.9c2.5-0.7,6.4-1.1,12.1,0.1c0.7,0.1,1.4,0.4,2,0.7
				c3.6,1.9,15.9,9,18.4,22.5c0.1,0.6,0.1,1.3,0.1,1.9l-0.4,7.8c-0.1,2.7-1.5,5.3-3.7,6.7l-0.1,0.1c-2.9,1.7-6.7,1.4-9.4-0.7
				c-1.9-1.5-3.9-3.7-4.2-6.9l-0.2-4.4c-0.1-1.3-0.4-2.5-1-3.6c-0.5-1-1.3-2.2-2.2-3.2c-1.7-1.8-4.2-2.8-6.6-2.7
				C280.2,377.3,277.1,377.1,275.7,375.5z"/>
			<path class="st17" d="M419,382.5c0,0-6.8-4.9-4-11.8c1-2.3,3-4.2,5.5-4.9c2.5-0.7,6.4-1.1,12.1,0.1c0.7,0.1,1.4,0.4,2,0.7
				c3.6,1.9,15.9,9,18.4,22.5c0.1,0.6,0.1,1.3,0.1,1.9l-0.4,7.8c-0.1,2.7-1.5,5.3-3.7,6.7l-0.1,0.1c-2.9,1.7-6.7,1.4-9.4-0.7
				c-1.9-1.5-3.9-3.7-4.2-6.9l-0.2-4.4c-0.1-1.3-0.4-2.5-1-3.6c-0.5-1-1.3-2.2-2.2-3.2c-1.7-1.8-4.2-2.8-6.6-2.7
				C423.5,384.2,420.4,384.1,419,382.5z"/>
			<path class="st18" d="M357.9,388.6c0,0,7.7,3.4,6.3,10.7c-0.5,2.5-2.1,4.7-4.4,5.9c-2.3,1.2-6,2.3-11.8,2.3
				c-0.7,0-1.4-0.1-2.1-0.3c-4-1.1-17.4-5.7-22.6-18.3c-0.2-0.6-0.4-1.2-0.5-1.8l-1.2-7.7c-0.4-2.6,0.4-5.5,2.3-7.3l0.1-0.1
				c2.5-2.3,6.3-2.7,9.3-1.2c2.1,1,4.5,2.8,5.5,5.9l1,4.3c0.3,1.2,0.9,2.4,1.7,3.3c0.7,0.8,1.7,1.9,2.8,2.7c2,1.5,4.7,1.9,7,1.3
				C353.4,387.8,356.3,387.4,357.9,388.6z"/>
			<path class="st18" d="M384.2,366.1c0,0,8.2-1.8,11.3,4.9c1.1,2.3,1,5-0.1,7.3s-3.4,5.5-8.1,8.9c-0.6,0.4-1.2,0.8-1.9,1
				c-3.9,1.5-17.4,5.8-29.1-1.3c-0.5-0.3-1-0.7-1.5-1.2l-5.5-5.5c-1.9-1.9-2.9-4.7-2.4-7.3v-0.1c0.7-3.3,3.4-5.9,6.8-6.5
				c2.3-0.4,5.3-0.3,7.9,1.5l3.3,2.7c1,0.8,2.1,1.4,3.4,1.7c1.1,0.3,2.5,0.5,4,0.5c2.5,0,4.9-1.2,6.5-3.1
				C380,368.2,382,366.1,384.2,366.1z"/>
		</g>
		<g>
			<g>
				<path class="st19" d="M345.6,335l-4,3.3l-7.3,6.2l-69.7-61.3c-3.1-2.7-4.7-6.5-4.7-10.3c0-2.2,0.5-4.4,1.5-6.3
					c0.8-1.5,1.9-2.9,3.2-4.2c5.8-4.9,14.3-4.3,19.3,1.4L345.6,335z"/>
				<path class="st20" d="M341.6,338.4l-7.3,6.2l-69.7-61.3c-3.1-2.7-4.7-6.5-4.7-10.3c0-2.2,0.5-4.4,1.5-6.3
					c5.8-4.9,14.3-4.2,19.3,1.5L341.6,338.4z"/>
			</g>
			<g>
				<path class="st20" d="M376.1,380.2c-9.5,7.9-26,3.7-36.9-9.2c-7.1-8.5-10-18.8-8.5-27.1c0.8-4.4,2.8-8.1,6.1-10.8
					c9.5-7.9,26-3.7,36.9,9.2c4.7,5.6,7.5,12,8.5,17.9C383.5,368.2,381.4,375.6,376.1,380.2z"/>
				<path class="st19" d="M382.1,360.2c-0.8,4.4-2.8,8.1-6.1,10.8c-9.5,7.9-26,3.7-36.9-9.2c-4.7-5.6-7.5-12-8.5-17.9
					c0.8-4.4,2.8-8.1,6.1-10.8c9.5-7.9,26-3.7,36.9,9.2C378.3,347.9,381.1,354.2,382.1,360.2z"/>
			</g>
		</g>
		<g>
			<g>
				<path class="st21" d="M502.8,380.2c0,23.8-9.6,45.4-25.2,61c-15.6,15.6-37.2,25.2-61,25.2H286.4c-2.8,0-5.7-0.1-8.4-0.4
					c-43.7-4.3-77.8-41-77.8-85.8c0-3.6,1.5-7,3.9-9.4c2.4-2.4,5.7-3.9,9.4-3.9h276.1C496.9,366.9,502.8,372.9,502.8,380.2z"/>
				<path class="st22" d="M412.8,401.7L412.8,401.7c0,35.6-28.8,64.3-64.3,64.3h-70.6c-43.7-4.3-77.8-41-77.8-85.8
					c0-3.6,1.5-7,3.9-9.4c2.4-2.4,5.7-3.9,9.4-3.9h169.6C400,369.6,412.8,384.2,412.8,401.7z"/>
				<path class="st2" d="M291.4,467.7h-1.3h-2c-2.8,0-5.7-0.1-8.4-0.4c-43.7-4.3-77.8-41-77.8-85.8c0-3.6,1.5-7,3.9-9.4
					c2.4-2.4,5.7-3.9,9.4-3.9h276.2c7.3,0,13.3,6,13.3,13.3c0,23.8-9.6,45.4-25.2,61c-15.6,15.6-37.2,25.2-61,25.2"/>
			</g>
			<path class="st21" d="M405.6,497.2H297.3c-17,0-30.8-13.8-30.8-30.8v-0.7h170v0.7C436.6,483.5,422.7,497.2,405.6,497.2z"/>
			<path class="st2" d="M336.6,467.3c-53.6,0,66.4,0,101.9,0v0.7c0,17-13.8,30.8-30.8,30.8H299.4c-17,0-30.8-13.8-30.8-30.8v-0.7
				h16.5c0,0,20.6-0.2,6.3,0"/>
		</g>
	</g>
</g>
</svg>
