<svg xmlns="http://www.w3.org/2000/svg" viewBox="0 0 504.45 504.64"><defs><style>.cls-1{fill:#e2dbd5;}.cls-2{fill:#ea6049;}.cls-3{fill:#de513e;}.cls-4{fill:#fff;}.cls-5{fill:#efebe8;}.cls-6,.cls-7{fill:#c6bab3;}.cls-6{opacity:0.64;}.cls-8{fill:#d4ccc7;}.cls-9{opacity:0.63;}.cls-10{fill:none;stroke:#000;stroke-miterlimit:10;stroke-width:12px;}.cls-11{fill:#faddc3;}.cls-12{fill:#ffead2;}.cls-13{fill:#f5d3b8;}.cls-14{fill:#e58b6c;}.cls-15{fill:#f09b73;}.cls-16{fill:#f8e868;}.cls-17,.cls-19{fill:#f6e23d;}.cls-17{opacity:0.82;}.cls-18{fill:#eed60f;}.cls-20{fill:#49ad4d;}.cls-21{fill:#81c784;}.cls-22{fill:#66bb6a;}</style></defs><g id="todos"><g id="leche"><path class="cls-1" d="M14.28,147.8H167.73V500.44H30a15.78,15.78,0,0,1-7.21-1.68,16.71,16.71,0,0,1-4.64-3.52,15.56,15.56,0,0,1-3.88-10.55Z" transform="translate(-7 -4)"/><rect class="cls-2" x="7.28" y="200.14" width="153.26" height="214.57"/><path class="cls-3" d="M14.47,363.43S127.3,349.11,167.54,237.56V419.19H14.47Z" transform="translate(-7 -4)"/><path class="cls-4" d="M135.61,326.74v2.56h-92v-2.56a45.91,45.91,0,0,1,2.26-14.28c.09-.28.18-.55.28-.83.17-.44.32-.89.5-1.36,4.82-13.11,16.43-37.57,42-62.71h2.22s21,17.28,38.17,55.59c.91,2,1.8,4.05,2.67,6.17.55,1.29,1.08,2.61,1.6,3.94a40.72,40.72,0,0,1,2.22,11.62C135.6,325.49,135.61,326.12,135.61,326.74Z" transform="translate(-7 -4)"/><path class="cls-4" d="M135.61,328c0,.88,0,1.76-.08,2.62v.16c-1.4,24.81-21.42,44.48-45.9,44.48s-44.5-19.67-45.9-44.48v-.16c0-.86-.08-1.74-.08-2.62a48.37,48.37,0,0,1,2.26-14.68c.09-.28.18-.56.28-.85.17-.46.32-.92.5-1.4,6.63-17.74,23.36-30.33,42.94-30.33a45.67,45.67,0,0,1,39.45,23,46.78,46.78,0,0,1,2.67,5.29c.6,1.4,1.14,2.83,1.6,4.28a47.39,47.39,0,0,1,2.22,12.76C135.6,326.73,135.61,327.38,135.61,328Z" transform="translate(-7 -4)"/><path class="cls-5" d="M48.76,349.73c4.6,1.36,32.86,9.18,59-7.6a69.54,69.54,0,0,0,25.31-29.44l.37,1.11a48.06,48.06,0,0,1-1.65,33.38,49.25,49.25,0,0,1-24.27,24.26,45,45,0,0,1-23,3.51,43.89,43.89,0,0,1-24.26-9.89A42.85,42.85,0,0,1,48.76,349.73Z" transform="translate(-7 -4)"/><path class="cls-5" d="M263.33,404.65" transform="translate(-7 -4)"/><path class="cls-6" d="M14.07,484.25s125.78-1.1,153.47-61.88v78.07l-142.18-.69S12.78,494.07,14.07,484.25Z" transform="translate(-7 -4)"/><polygon class="cls-7" points="206.52 59.01 160.54 142.27 160.96 496.44 206.52 496.44 206.52 59.01"/><polygon class="cls-8" points="206.52 59.64 206.06 496.44 252.5 496.44 252.5 143.31 206.52 59.64"/><path class="cls-1" d="M60.26,63.64H213.38v-38A15.65,15.65,0,0,0,207.19,13l-.21-.15A15.63,15.63,0,0,0,197.86,10H77a16.78,16.78,0,0,0-9.4,2.81l-.18.12a16.92,16.92,0,0,0-7.2,14Z" transform="translate(-7 -4)"/><polygon class="cls-5" points="7.28 144.02 53.26 59.64 206.55 59.64 160.41 144.02 7.28 144.02"/><g class="cls-9"><circle class="cls-4" cx="83.91" cy="97.96" r="15.33"/><circle class="cls-4" cx="106.9" cy="120.95" r="7.66"/></g><path class="cls-10" d="M13,148.45,59.62,63V22.74s1.27-10.82,11.49-12.1L199.39,10s10.94,1.92,12.21,12.13,0,41.7,0,41.7l46.62,83.48V500.44H24.93s-10-3.19-11.29-12.13Z" transform="translate(-7 -4)"/><polyline class="cls-10" points="52.62 59.01 204.6 59.84 204.6 496.44"/><polyline class="cls-10" points="17.93 496.44 160.11 497.12 160.11 420.33 160.11 496.44 160.11 145.11 204.6 59.84"/><path class="cls-10" d="M13.63,485.19" transform="translate(-7 -4)"/><line class="cls-10" x1="160.11" y1="145.11" x2="6" y2="144.46"/></g><g id="milki"><path class="cls-11" d="M417.87,20.84v54.3H310.58V20.84a9.56,9.56,0,0,1,9.57-9.56H408.3A9.56,9.56,0,0,1,417.87,20.84Z" transform="translate(-7 -4)"/><path class="cls-12" d="M387.22,11.92a91.49,91.49,0,0,1-3.09,23.62,90.21,90.21,0,0,1-5.62,15.33,91.47,91.47,0,0,1-16.72,24.27H310.58V20.84a9.56,9.56,0,0,1,9.57-9.56H387.2C387.22,11.49,387.22,11.7,387.22,11.92Z" transform="translate(-7 -4)"/><rect class="cls-13" x="303.59" y="31.55" width="107.28" height="15.33"/><path class="cls-14" d="M434.47,90.78a21.29,21.29,0,0,1-6.27,15.12l-.68.66h0a21.25,21.25,0,0,1-14.43,5.61H316.65A21.3,21.3,0,0,1,304,108a20.71,20.71,0,0,1-3.14-2.84l0,0a21.39,21.39,0,0,1,15.82-35.77h96.43A21.39,21.39,0,0,1,434.47,90.78Z" transform="translate(-7 -4)"/><path class="cls-14" d="M448.52,194V478.82a19.7,19.7,0,0,1-19.71,19.7H299.64a19.71,19.71,0,0,1-19.71-19.7V194a69.73,69.73,0,0,1,69.72-69.72H378.8a69.53,69.53,0,0,1,53.73,25.31l.13.14a69.28,69.28,0,0,1,15.78,41.18C448.5,192,448.52,193,448.52,194Z" transform="translate(-7 -4)"/><path class="cls-14" d="M432.66,149.76l-136.56-.37h0c.83-1.73,20.88-21.11,20.88-21.11V123c0-2.73-8.26-10.69-13-15-1.68-1.55-2.9-2.62-3.14-2.84l0,0,126.68,1.4a17.57,17.57,0,0,0-6.32,4,47.26,47.26,0,0,0-8.43,11.17v7.67c3.55,3.55,8.08,8.17,11.93,12.12s7.15,7.35,7.84,8.08Z" transform="translate(-7 -4)"/><path class="cls-15" d="M448.44,190.94a222.34,222.34,0,0,1-168.51,116.8V194a69.49,69.49,0,0,1,16.17-44.64h0c.83-1.73,20.88-21.11,20.88-21.11V123c0-2.73-8.26-10.69-13-15a20.71,20.71,0,0,1-3.14-2.84l0,0a21.39,21.39,0,0,1,15.82-35.77h96.43A21.38,21.38,0,0,1,428.2,105.9l-.68.66h0a21.19,21.19,0,0,1-6.32,4,47.26,47.26,0,0,0-8.43,11.17v7.67c3.55,3.55,8.08,8.17,11.93,12.12a68.77,68.77,0,0,1,7.84,8.08l.13.14A69.28,69.28,0,0,1,448.44,190.94Z" transform="translate(-7 -4)"/><path class="cls-10" d="M310.26,71.79V18.28a6.73,6.73,0,0,1,5.2-6.37c5.19-1.27,96.92-.63,96.92-.63A7.34,7.34,0,0,1,418,17V71.79h.51a19.64,19.64,0,0,1,7.66,3.82c6.66,5.45,7.31,13.57,7.41,15.28v5.46a20.82,20.82,0,0,1-1.46,4.92,23.69,23.69,0,0,1-11.06,11.28,18.71,18.71,0,0,0-5.11,5.09,19,19,0,0,0-3.14,8.92v3.82c.61.38,1.24.8,1.87,1.28a23.12,23.12,0,0,1,6.38,7.64,83.09,83.09,0,0,1,12.77,14,86.22,86.22,0,0,1,15.33,39.49V484.52s2.12,14-11.92,15.92H278.65v-306a101.17,101.17,0,0,1,19.8-46.25c1.59-1.35,3.21-2.78,4.84-4.3a133.49,133.49,0,0,0,10.49-11,7.25,7.25,0,0,0,3.83-5.09,7,7,0,0,0-1.28-5.1L304.84,110,296,102.36s-3.9-6.37-1.3-12.74a27.28,27.28,0,0,1,1.94-4.78,29.2,29.2,0,0,1,9.48-10.51Z" transform="translate(-7 -4)"/><g class="cls-9"><circle class="cls-4" cx="366.17" cy="146.49" r="19.16"/><circle class="cls-4" cx="394.91" cy="175.23" r="9.58"/></g></g><g id="queso"><path class="cls-16" d="M350.83,485.81S311.24,511.36,255,499.86c0,0-43.42-7.66-70.24-38.31v-4.83L195,430.89a6.06,6.06,0,0,1,2.55-3.83c2.09-1.2,3.86.21,6.39,0,5.08-.43,8.9-7,10.21-11.49.51-1.71,1.76-6,0-10.22-1.53-3.72-4-4.26-5.1-7.66s.14-6.68,1.27-8.94q11.5-30,23-60a6.54,6.54,0,0,1,1.28-2.56c2.58-3.11,8.28-3.57,11.49-1.27,1.46,1,1.2,1.79,2.56,2.55,3.19,1.8,7.7-.62,8.94-1.28,6.16-3.29,8.37-9.62,8.94-11.49.72-2.38,2.06-6.79,0-11.5-1.47-3.34-4.9-7.37-8.94-7.66-1.27-.09-1.61.25-2.56,0-3.07-.82-4.43-5.77-5.1-10.22l25.54-66.41s1.28-5.11,7.66-6.39h2.79s3.6,1.28,6.15,7.67l92,240.11a5.67,5.67,0,0,1-2.55,6.38Z" transform="translate(-7 -4)"/><path class="cls-17" d="M190.43,467.43s142.1,2.42,158.6-94.65l35,87.49s1.92,3.19-2.55,6.38L349,486.89s-38.43,22.52-87,14.23C262.07,501.12,219.68,495.66,190.43,467.43Z" transform="translate(-7 -4)"/><path class="cls-18" d="M299.11,452a23,23,0,0,1-23,23,22.53,22.53,0,0,1-5.29-.63A23,23,0,1,1,299.11,452Z" transform="translate(-7 -4)"/><path class="cls-16" d="M299.11,452a23,23,0,0,1-23,23,22.53,22.53,0,0,1-5.29-.63,23,23,0,0,1,21.89-30,22.53,22.53,0,0,1,5.29.63A23,23,0,0,1,299.11,452Z" transform="translate(-7 -4)"/><path class="cls-18" d="M351.47,421.31a23,23,0,0,1-23,23,22.44,22.44,0,0,1-5.28-.62,23,23,0,1,1,27.17-29.4A22.69,22.69,0,0,1,351.47,421.31Z" transform="translate(-7 -4)"/><path class="cls-16" d="M351.47,421.31a23,23,0,0,1-23,23,22.44,22.44,0,0,1-5.28-.62,22.75,22.75,0,0,1-1.1-7,23,23,0,0,1,23-23,22.45,22.45,0,0,1,5.28.63A22.69,22.69,0,0,1,351.47,421.31Z" transform="translate(-7 -4)"/><path class="cls-18" d="M308.05,380.44a23,23,0,0,1-23,23,22.53,22.53,0,0,1-5.29-.62,23,23,0,1,1,28.28-22.37Z" transform="translate(-7 -4)"/><path class="cls-19" d="M308.05,380.44a23,23,0,0,1-23,23,22.53,22.53,0,0,1-5.29-.62,23,23,0,0,1,21.89-30,22.53,22.53,0,0,1,5.29.63A23,23,0,0,1,308.05,380.44Z" transform="translate(-7 -4)"/><path class="cls-18" d="M426.83,437.92,383.4,317.86l-11.49-25.54c-2.56-5.11-5.11-5.11-5.11-5.11s-23,5.11-23-10.22,8.94-17.88,8.94-17.88c5.11-3.83,2.55-10.22,2.55-10.22l-11.49-30.65c-2.56-6.38-6.17-6.38-6.17-6.38H285.06l6.38,8.94,17.89,47.25Q347,365.76,384.68,463.46a89,89,0,0,0,42.15-25.54Z" transform="translate(-7 -4)"/><path class="cls-10" d="M352.08,495.91s-34.49,10.52-91.32,5.26c0,0-42.79-5.26-76-39.74a7.31,7.31,0,0,1,0-5.7l10.22-25s0-5.11,7.66-5.11c0,0,7.67-1.27,12.78-11.49v-7.66a39.48,39.48,0,0,0-6.39-8.94s-1.28-5.11,1.28-7.67l19.16-49.81,5.1-14s7.5-5.11,13.33,0a10.89,10.89,0,0,0,9.66,0s6.39-2.55,8.94-11.49c0,0,5.11-14.05-7.66-17.88,0,0-12.77,0-7.66-12.77l17-43.28L278,216.21s2.55-5.11,7.66-3.84H339.3a8.71,8.71,0,0,1,5.11,5.11l12.77,33.21s1.28,3.83-1.27,5.11L347,263.46s-5.11,10.22,1.27,17.88c0,0,3.84,8.94,15.33,6.39,0,0,8.94-2.56,10.22,5.11L427.43,464S393,485.69,352.08,495.91Z" transform="translate(-7 -4)"/><g class="cls-9"><circle class="cls-4" cx="272.93" cy="271.66" r="15.33"/><circle class="cls-4" cx="295.92" cy="294.65" r="7.66"/></g></g><g id="yogurt"><rect class="cls-20" x="315.17" y="313.17" width="183.91" height="15.33" rx="7.66"/><path class="cls-21" d="M338.41,332.49l14,163.48s2.69,5.11,5.81,5.11H469.55a8.89,8.89,0,0,0,5.52-6.39l14.78-162.2Z" transform="translate(-7 -4)"/><path class="cls-22" d="M348.63,451.27s91.95,1.28,137.93-86.85L475.07,494.69s-1.28,5.11-6.39,6.39H357.76s-4-2.56-5.3-6.39Z" transform="translate(-7 -4)"/><path class="cls-10" d="M338.14,331.85H327.5a6.62,6.62,0,0,1-4.69-6.38v-2.68s1.28-5,6.39-5H499.06s5.11,0,6.39,6.39v1.72a6,6,0,0,1-6.39,5.94H489L474.79,492.78s0,6.38-7.66,7.66H358.57s-5.11-1.28-6.39-7.66Z" transform="translate(-7 -4)"/><g class="cls-9"><circle class="cls-4" cx="370" cy="361.06" r="15.33"/><circle class="cls-4" cx="392.99" cy="384.05" r="7.66"/></g></g></g></svg>