<svg id="filled_outline" height="512" viewBox="0 0 512 512" width="512" xmlns="http://www.w3.org/2000/svg" data-name="filled outline"><path d="m344 344h-208v-280h48v104h32a16 16 0 0 1 16-16h16a16 16 0 0 1 16 16h32v-104h48z" fill="#79b53f"/><path d="m312 64v152a80 80 0 0 1 -80 80 80 80 0 0 1 -80-80v-152h-16v280h208v-280z" fill="#64962f"/><path d="m464 72h-55.844a21.417 21.417 0 0 0 -20.594 15.534l-27.562 96.466v8h32v-8l24-80h48a16 16 0 0 0 16-16 16 16 0 0 0 -16-16z" fill="#eeaaa8"/><path d="m440 456h-128l-32-208v-16h192v16z" fill="#252364"/><path d="m296 232h-16v16l32 208h16l-32-208z" fill="#4e52a8"/><path d="m472 216v16h-192v-16l8-32h176z" fill="#e97867"/><path d="m264 216h224v32h-224z" fill="#af4f45"/><g fill="#e97867"><path d="m288 232h16v16h-16z"/><path d="m320 232h16v16h-16z"/><path d="m352 232h16v16h-16z"/><path d="m384 232h16v16h-16z"/><path d="m416 232h16v16h-16z"/><path d="m448 232h16v16h-16z"/></g><path d="m312 456h128l14.769-96h-157.538z" fill="#7b81c6"/><path d="m40 424 32 64h224l32-64v-8h-288z" fill="#4895aa"/><path d="m176 192h16v16h-16z" fill="#64962f"/><path d="m176 232h16v32h-16z" fill="#64962f"/><path d="m136 424 16 32h64l16-32z" fill="#2a6377"/><path d="m120.705 344h-65.405a31.3 31.3 0 0 1 -31.3-31.295v-34.211a27.5 27.5 0 0 1 2.9-12.3 27.51 27.51 0 0 0 1.493-21l-4.393-13.194v-66.1a143.241 143.241 0 0 1 26.681-83.254l13.319-18.646v-8h48v8l13.319 18.646a143.241 143.241 0 0 1 26.681 83.254v66.1l-4.4 13.19a27.51 27.51 0 0 0 1.493 21 27.5 27.5 0 0 1 2.9 12.3v34.211a31.3 31.3 0 0 1 -31.288 31.299z" fill="#2993ce"/><path d="m152 232v-66.1a143.241 143.241 0 0 0 -26.681-83.258l-13.319-18.642v-8h-16v8l13.319 18.646a143.241 143.241 0 0 1 26.681 83.254v66.1l-4.4 13.19a27.51 27.51 0 0 0 1.493 21 27.5 27.5 0 0 1 2.9 12.3v34.211a31.3 31.3 0 0 1 -31.288 31.299h16a31.3 31.3 0 0 0 31.3-31.3v-34.206a27.5 27.5 0 0 0 -2.9-12.3 27.51 27.51 0 0 1 -1.493-21z" fill="#045f9c"/><path d="m64 24h48v40h-48z" fill="#da8583"/><path d="m96 24h16v40h-16z" fill="#af1e4b"/><path d="m24 168h128v64h-128z" fill="#da8583"/><path d="m152 232h-128v-48a42.246 42.246 0 0 0 40.985 32h20.769a42.246 42.246 0 0 0 42.246-42.246v-5.754h24z" fill="#af1e4b"/><path d="m40 392 32-64h224l32 64v8h-288z" fill="#96d6e4"/><path d="m296 328h-16a40.174 40.174 0 0 1 -36.926 56h-199.074l-4 8v8h288v-8z" fill="#4895aa"/><rect fill="#fff" height="16" rx="8" transform="matrix(.707 -.707 .707 .707 -186.274 121.608)" width="32" x="37.657" y="277.657"/><rect fill="#fff" height="16" rx="8" transform="matrix(.707 -.707 .707 .707 -66.108 75.716)" width="32" x="42.343" y="109.657"/><rect fill="#96d6e4" height="32" rx="16" width="320" x="24" y="392"/><circle cx="56" cy="144" fill="#fff" r="8"/><path d="m488 208h-9.754l-6.485-25.94a8 8 0 0 0 -7.761-6.06h-61.248l19.2-64h42.048a24 24 0 0 0 0-48h-55.844a29.543 29.543 0 0 0 -28.287 21.337l-25.904 90.663h-1.965v-112a8 8 0 0 0 -8-8h-48a8 8 0 0 0 -8 8v41.223h16v-33.223h32v104h-40a8 8 0 0 0 8-8v-46.633h-16v38.633h-17.371a24.042 24.042 0 0 0 -22.629-16h-16a24.042 24.042 0 0 0 -22.629 16h-17.371v-96a8 8 0 0 0 -8-8h-48a8 8 0 0 0 -8 8v8.637l-8-11.2v-37.437a8 8 0 0 0 -8-8h-48a8 8 0 0 0 -8 8v37.437l-11.828 16.563a150.391 150.391 0 0 0 -28.172 87.9v66.1a8.021 8.021 0 0 0 .41 2.529l4.4 13.192a19.382 19.382 0 0 1 -1.059 14.892 35.69 35.69 0 0 0 -3.751 15.881v34.211a39.35 39.35 0 0 0 35.165 39.077l-16.4 32.8a23.995 23.995 0 0 0 0 46.836l30.08 60.16a8 8 0 0 0 7.155 4.422h224a8 8 0 0 0 7.155-4.422l30.08-60.16a23.995 23.995 0 0 0 0-46.836l-30.08-60.16a8 8 0 0 0 -7.155-4.422h-80v16h75.056l24 48h-262.112l24-48h122.47v-16h-40.1a39.381 39.381 0 0 0 .689-7.3v-34.206a35.69 35.69 0 0 0 -3.749-15.881 19.38 19.38 0 0 1 -1.058-14.893l4.4-13.191a8.021 8.021 0 0 0 .404-2.529v-66.1a150.329 150.329 0 0 0 -16-67.756v-26.144h32v96a8 8 0 0 0 8 8h32a8 8 0 0 0 8-8 8.009 8.009 0 0 1 8-8h16a8.009 8.009 0 0 1 8 8 8 8 0 0 0 8 8h24a8 8 0 0 0 -7.761 6.06l-6.485 25.94h-9.754a8 8 0 0 0 -8 8v32a8 8 0 0 0 8 8h9.136l7.632 49.605 15.814-2.433-7.257-47.172h173.35l-14.769 96h-79.906v16h77.444l-12.307 80h-96.914v16h103.777a8 8 0 0 0 7.907-6.783l30.957-201.217h9.136a8 8 0 0 0 8-8v-32a8 8 0 0 0 -8-8zm-416-176h32v24h-32zm219.056 448h-214.112l-24-48h78.112l13.789 27.578a8 8 0 0 0 7.155 4.422h64a8 8 0 0 0 7.155-4.422l13.789-27.578h78.112zm-142.112-48h70.112l-8 16h-54.112zm179.056-32a8 8 0 0 1 0 16h-288a8 8 0 0 1 0-16zm-184-87.3a23.394 23.394 0 0 1 -1.167 7.3h-70.833a8 8 0 0 0 -7.155 4.422l-5.789 11.578h-3.756a23.321 23.321 0 0 1 -23.3-23.295v-34.211a19.6 19.6 0 0 1 2.06-8.724 35.278 35.278 0 0 0 1.926-27.109l-.886-2.661h105.8l-.886 2.66a35.275 35.275 0 0 0 1.925 27.11 19.6 19.6 0 0 1 2.06 8.724zm0-88.7h-112v-48h96v-16h-95.863a134.394 134.394 0 0 1 25.054-72.7l10.926-15.3h39.766l10.926 15.3a134.483 134.483 0 0 1 25.191 78.6zm251.254-134.269a13.475 13.475 0 0 1 12.902-9.731h55.844a8 8 0 0 1 0 16h-48a8 8 0 0 0 -7.663 5.7l-22.29 74.3h-15.441zm84.746 150.269h-16v-8h-16v8h-16v-8h-16v8h-16v-8h-16v8h-16v-8h-16v8h-16v-8h-16v8h-16v-8h-16v8h-16v-16h127.388v-16h-109.142l4-16h163.508l4 16h-44.839v16h63.085z"/><path d="m176 192h16v16h-16z"/><path d="m176 232h16v32h-16z"/></svg>