<svg id="Capa_1" data-name="Capa 1" xmlns="http://www.w3.org/2000/svg" viewBox="0 0 503.81 416.87"><defs><style>.cls-1{fill:#cef;}.cls-2{fill:#fff;}.cls-3{stroke:#000;stroke-miterlimit:10;}</style></defs><path class="cls-1" d="M213.65,85.21c-106.84,0-198.29,91.44-198.29,198.28,0,35.24,11.84,68.28,28.3,96.73h340c16.46-28.45,28.3-61.49,28.3-96.73C411.94,176.65,320.49,85.21,213.65,85.21Z" transform="translate(-7.3 -77.14)"/><path class="cls-2" d="M411.94,380.22H321.7c23-25.69,39.46-59.6,39.46-96.73,0-80-67.51-147.5-147.51-147.5S66.14,203.49,66.14,283.49c0,37.13,16.44,71,39.46,96.73H15.36C35.51,410.43,74.25,431,110.57,431H15.36c20.15,30.21,58.89,50.78,95.21,50.78H316.74c36.33,0,75-20.56,95.2-50.78h-95.2C353.07,431,391.78,410.44,411.94,380.22Z" transform="translate(-7.3 -77.14)"/><path d="M15.36,372.16a8.06,8.06,0,0,0-6.7,12.53C19.08,400.32,34,413.48,51,422.94H15.36a8.06,8.06,0,0,0-6.7,12.53C30.34,468,71.29,489.84,110.57,489.84H316.74c38.91,0,80.37-22.09,101.91-54.37a8.06,8.06,0,0,0-6.71-12.53H376.22c17.56-9.75,32.2-22.93,42.42-38.25a8.05,8.05,0,0,0-6.7-12.53H397.19C412.33,342.45,420,312.68,420,283.49c0-111.27-95-206.35-206.35-206.35C102.49,77.14,7.3,172,7.3,283.49c0,29.19,7.67,59,22.81,88.67ZM316.74,473.72H110.57c-28.26,0-58.51-13.83-78.43-34.74H395.2C375.89,459.37,345.89,473.72,316.74,473.72Zm0-50.78H110.57c-28.26,0-58.51-13.83-78.43-34.74H395.2C375.89,408.59,345.89,422.94,316.74,422.94ZM109.25,372.16c-22.62-26.37-35-57.73-35-88.67,0-75.59,63.86-139.44,139.45-139.44S353.1,207.9,353.1,283.49c0,30.94-12.42,62.3-35.05,88.67ZM23.42,283.49c0-103.11,87.12-190.22,190.23-190.22s190.23,87.11,190.23,190.22c0,29-8.4,58.79-24.95,88.67H338.62c19.83-27,30.6-57.93,30.6-88.67,0-84.32-71.24-155.56-155.57-155.56S58.08,199.17,58.08,283.49c0,30.74,10.77,61.68,30.6,88.67H48.37C31.82,342.28,23.42,312.48,23.42,283.49Z" transform="translate(-7.3 -77.14)"/><path d="M247.85,167.51A8.06,8.06,0,1,0,243.29,183a105.44,105.44,0,0,1,75.15,100.52,8.06,8.06,0,0,0,16.12,0C334.56,228.17,297.41,182.15,247.85,167.51Z" transform="translate(-7.3 -77.14)"/><rect class="cls-1" x="253.51" y="229.96" width="175.48" height="106.77"/><rect class="cls-1" x="263.51" y="304.13" width="156.45" height="69.42"/><path class="cls-1" d="M399.64,485.41H303.3a20.37,20.37,0,0,1-20.37-20.36v-28.7A20.36,20.36,0,0,1,303.3,416h96.34c12.73,22,24.25,66.81,20.36,20.36v28.7A20.37,20.37,0,0,1,399.64,485.41Z" transform="translate(-7.3 -77.14)"/><ellipse class="cls-1" cx="461.79" cy="301.5" rx="38.1" ry="50.64"/><circle class="cls-2" cx="450.73" cy="299.96" r="15.32"/><path class="cls-3" d="M456.18,322.67h-4.53c-.27-8.13-.84-16.24-1.72-24.2l-.76-6.92H247.94l-.77,6.92a320.57,320.57,0,0,0-1.91,34.93c0,33.8,4,65.66,11.68,92.12a188.34,188.34,0,0,0,14.77,37.08,117.16,117.16,0,0,0,21.16,28.72l2.26,2.19H402l2.26-2.19A116.93,116.93,0,0,0,425.4,462.6a182.28,182.28,0,0,0,12.94-31.07h17.84a54.43,54.43,0,1,0,0-108.86ZM395.58,478H301.52c-25.91-27.14-40.71-79.54-40.71-144.57,0-8.81.38-17.62,1.13-26.3H435.16c.75,8.68,1.13,17.5,1.13,26.3C436.29,398.43,421.49,450.83,395.58,478Zm54.68-108.65h5.92a7.79,7.79,0,1,1,0,15.57h-7.66C449.2,379.8,449.78,374.6,450.26,369.32ZM456.18,416H442.71q1.85-7.55,3.33-15.55h10.14a23.34,23.34,0,1,0,0-46.67h-4.84q.38-7.68.47-15.55h4.37a38.89,38.89,0,1,1,0,77.77Z" transform="translate(-7.3 -77.14)"/><path d="M213.65,162.59a8.06,8.06,0,1,0,8.06,8.06A8.06,8.06,0,0,0,213.65,162.59Z" transform="translate(-7.3 -77.14)"/><path d="M161.29,217.59c-1.57-.33-13.93,1.86-19.45-9.28a26,26,0,0,1-2.38-11.76,2.51,2.51,0,0,0-2.07-2.8,2.56,2.56,0,0,0-2.94,1.94c-.16.72,1,13.22-8,19-5.7,3.63-12.35,2.69-13.6,2.83a2.55,2.55,0,0,0-.26,5c1.35.31,8-.91,14,3,6.33,4.12,7.65,11.7,7.87,15.89,0,2.39-.08,2.67.11,3.26a2.55,2.55,0,0,0,4.94-.31c.14-.79-.48-6.81,2.46-12.64a2.32,2.32,0,1,0-4.14-2.08c-.29.58-.56,1.18-.81,1.81a20.55,20.55,0,0,0-10.78-11.38A20.54,20.54,0,0,0,137,208.72a20.33,20.33,0,0,0,10.77,11.37c-.51.23-1,.47-1.52.74a2.32,2.32,0,0,0,2.21,4.08c5.46-3,11.43-2.16,12.67-2.29A2.55,2.55,0,0,0,161.29,217.59Z" transform="translate(-7.3 -77.14)"/><path d="M222.88,287.32c-2.66-.55-23.6,3.16-33-15.72-4.39-8.85-4.09-18.7-4-19.93a4.26,4.26,0,0,0-3.51-4.74,4.32,4.32,0,0,0-5,3.29c-.28,1.22,1.75,22.4-13.63,32.23-9.66,6.17-20.93,4.57-23.05,4.81-4.78.54-5.16,7.43-.44,8.51,2.28.51,13.62-1.55,23.69,5,10.73,7,13,19.82,13.33,26.92.05,4.06-.13,4.53.19,5.52a4.32,4.32,0,0,0,8.38-.52c.24-1.34-.81-11.54,4.16-21.41a3.92,3.92,0,0,0-7-3.53c-.5,1-1,2-1.38,3.06a34.84,34.84,0,0,0-18.27-19.27,34.84,34.84,0,0,0,18.26-19.25,34.49,34.49,0,0,0,18.24,19.27c-.85.37-1.71.79-2.56,1.25a3.92,3.92,0,0,0,3.73,6.9c9.26-5,19.38-3.65,21.47-3.88A4.32,4.32,0,0,0,222.88,287.32Z" transform="translate(-7.3 -77.14)"/><path d="M417.87,341.78c-1.65-.35-14.65,2-20.46-9.76a27.46,27.46,0,0,1-2.5-12.38,2.65,2.65,0,0,0-2.18-2.94,2.68,2.68,0,0,0-3.09,2c-.17.76,1.08,13.91-8.46,20-6,3.82-13,2.83-14.32,3a2.69,2.69,0,0,0-.27,5.28c1.42.32,8.46-1,14.71,3.11,6.67,4.34,8.05,12.31,8.28,16.72,0,2.52-.08,2.81.12,3.43a2.68,2.68,0,0,0,5.2-.33c.15-.83-.5-7.16,2.58-13.29a2.44,2.44,0,1,0-4.35-2.19c-.31.61-.59,1.24-.86,1.9a21.63,21.63,0,0,0-11.34-12,21.63,21.63,0,0,0,11.34-11.95,21.36,21.36,0,0,0,11.32,12q-.79.36-1.59.78a2.44,2.44,0,0,0,2.32,4.29c5.75-3.11,12-2.27,13.33-2.41A2.68,2.68,0,0,0,417.87,341.78Z" transform="translate(-7.3 -77.14)"/></svg>