<?xml version="1.0" encoding="utf-8"?>
<!-- Generator: Adobe Illustrator 25.4.1, SVG Export Plug-In . SVG Version: 6.00 Build 0)  -->
<svg version="1.1" id="grupo" xmlns="http://www.w3.org/2000/svg" xmlns:xlink="http://www.w3.org/1999/xlink" x="0px" y="0px"
	 viewBox="0 0 512 512" style="enable-background:new 0 0 512 512;" xml:space="preserve">
<style type="text/css">
	.st0{fill:#0071BC;stroke:#000000;stroke-width:10;stroke-miterlimit:10;}
	.st1{fill:#603813;}
	.st2{fill:#F7931E;}
	.st3{fill:#F7931E;stroke:#000000;stroke-width:10;stroke-miterlimit:10;}
	.st4{fill:#3FA9F5;stroke:#000000;stroke-width:9;stroke-miterlimit:10;}
	.st5{fill:#3FA9F5;stroke:#000000;stroke-width:8;stroke-miterlimit:10;}
	.st6{fill:#0071BC;stroke:#000000;stroke-width:11;stroke-miterlimit:10;}
	.st7{fill:#F15A24;stroke:#000000;stroke-width:10;stroke-miterlimit:10;}
	.st8{fill:none;stroke:#000000;stroke-width:10;stroke-miterlimit:10;}
	.st9{fill:#39B54A;stroke:#000000;stroke-width:10;stroke-miterlimit:10;}
	.st10{fill:#ED1C24;stroke:#000000;stroke-width:10;stroke-miterlimit:10;}
</style>
<g id="envoltura_3">
	<path class="st0" d="M476.49,399.83v32l-17.77-7.13l-17.82,7.13l-18.7-7.13l-17.09,7.13l-18.45-7.13l-16.83,7.13l-17.72-7.13
		l-17.77,7.13l-18.76-7.13l-17.09,7.13l-18.45-7.13l-17.09,7.13l-17.46-7.13l-18.58,7.13l-17.95-8.05l-16.78,8.05v-31.77
		l17.77-33.92c-2.46-46.71-4.92-93.41-7.37-140.12c2.13-41.12,4.26-82.24,6.39-123.35l-16.78-33.39V37.11l17.77,8.4l17.82-8.4
		l18.7,8.4l17.84-8.4l17.69,8.4l16.83-8.4l17.72,7.48l18.58-7.48l17.95,8.4l17.34-8.4l17.21,7.48l18.58-7.48l17.95,8.4l17.09-8.4
		l18.45,8.4l16.78-8.23v32.02l-17.77,33.39c1.59,40.77,3.18,81.54,4.77,122.31c-1.92,47.05-3.84,94.1-5.75,141.16
		C463.98,377.38,470.24,388.61,476.49,399.83z"/>
	<g>
		<g>
			<path class="st1" d="M312.77,243.9c-16.16,0-29.3-13.14-29.3-29.3s13.14-29.3,29.3-29.3c16.16,0,29.3,13.14,29.3,29.3
				S328.92,243.9,312.77,243.9z"/>
			<path d="M312.77,190.3c13.4,0,24.3,10.9,24.3,24.3s-10.9,24.3-24.3,24.3c-13.4,0-24.3-10.9-24.3-24.3S299.37,190.3,312.77,190.3
				 M312.77,180.3c-18.94,0-34.3,15.36-34.3,34.3s15.36,34.3,34.3,34.3c18.94,0,34.3-15.36,34.3-34.3S331.71,180.3,312.77,180.3
				L312.77,180.3z"/>
		</g>
		<g>
			<g>
				<path class="st2" d="M347.07,242.86c-23.03,0-41.77-13.14-41.77-29.3c0-0.03,0-0.06,0-0.09c3.82-0.28,7.75-0.56,11.59-0.66
					c6.2-0.15,12.41-0.3,18.62-0.44l3.23-0.08c7.98,0.21,16.11,0.34,24.19,0.4c2.81,0.02,5.6,0.16,8.55,0.31
					c3.17,0.16,6.46,0.33,9.73,0.33c2.77,0,5.29-0.12,7.63-0.37c0.01,0.2,0.01,0.4,0.01,0.61
					C388.84,229.72,370.1,242.86,347.07,242.86z"/>
				<path d="M338.73,217.29c7.97,0.2,16.1,0.34,24.16,0.4c2.7,0.02,5.44,0.16,8.34,0.3c3.23,0.16,6.58,0.33,9.98,0.33
					c0.65,0,1.28-0.01,1.9-0.02c-3.45,10.99-18.55,19.56-36.04,19.56c-17.6,0-32.79-8.68-36.11-19.78c2.03-0.13,4.04-0.23,6.05-0.28
					c6-0.15,11.99-0.29,17.99-0.43L338.73,217.29 M338.74,207.29c-7.33,0.17-14.65,0.34-21.98,0.52c-5.35,0.13-10.67,0.6-15.99,0.98
					c-0.3,1.56-0.47,3.15-0.47,4.77c0,18.94,20.94,34.3,46.77,34.3s46.77-15.36,46.77-34.3c0-1.95-0.24-3.85-0.67-5.7
					c-1.02-0.03-2.03-0.07-3.05-0.1c0,0-0.01,0-0.01,0c-2.95,0.42-5.93,0.57-8.91,0.57c-6.07,0-12.18-0.59-18.25-0.64
					C354.87,207.63,346.81,207.5,338.74,207.29L338.74,207.29z"/>
			</g>
			<polyline class="st3" points="393.84,212.52 347.07,212.52 300.29,212.52 			"/>
		</g>
	</g>
	<g>
		<path d="M336.16,148.72c40.62,0,73.68,33.05,73.68,73.68s-33.05,73.68-73.68,73.68s-73.68-33.05-73.68-73.68
			S295.53,148.72,336.16,148.72 M336.16,138.72c-46.21,0-83.68,37.46-83.68,83.68s37.46,83.68,83.68,83.68s83.68-37.46,83.68-83.68
			S382.37,138.72,336.16,138.72L336.16,138.72z"/>
	</g>
	<polygon class="st4" points="192.19,68.87 192.19,33.38 209.95,42.24 227.7,33.36 245.45,42.24 263.61,33.36 280.96,42.24 
		299.2,33.36 316.47,42.24 333.95,33.36 351.98,42.24 370.22,33.36 387.49,42.24 405.3,33.36 423,42.24 440.73,33.36 458.5,42.24 
		476.49,33.36 476.49,68.87 	"/>
	<polygon class="st5" points="477,400.14 477,432.05 459.21,424.09 441.43,432.07 423.64,424.09 405.46,432.07 388.07,424.09 
		369.8,432.07 352.5,424.09 334.99,432.07 316.93,424.09 298.66,432.07 281.35,424.09 263.5,432.07 245.78,424.09 228.02,432.07 
		210.21,424.09 192.19,432.07 192.19,400.14 	"/>
</g>
<g id="Capa_9">
	<line class="st6" x1="300.81" y1="54.24" x2="300.81" y2="71.99"/>
	<line class="st6" x1="228.05" y1="53.79" x2="228.05" y2="71.54"/>
	<line class="st6" x1="263.39" y1="53.79" x2="263.39" y2="71.54"/>
	<line class="st6" x1="334.08" y1="53.79" x2="334.08" y2="71.54"/>
	<line class="st6" x1="405.8" y1="53.79" x2="405.8" y2="71.54"/>
	<line class="st6" x1="370.46" y1="53.79" x2="370.46" y2="71.54"/>
	<line class="st6" x1="441.7" y1="53.3" x2="441.7" y2="71.05"/>
</g>
<g id="Capa_9_copia">
	<line class="st6" x1="298.74" y1="398.29" x2="298.74" y2="416.05"/>
	<line class="st6" x1="225.97" y1="397.84" x2="225.97" y2="415.6"/>
	<line class="st6" x1="261.32" y1="397.84" x2="261.32" y2="415.6"/>
	<line class="st6" x1="332" y1="397.84" x2="332" y2="415.6"/>
	<line class="st6" x1="403.72" y1="397.84" x2="403.72" y2="415.6"/>
	<line class="st6" x1="368.38" y1="397.84" x2="368.38" y2="415.6"/>
	<line class="st6" x1="439.62" y1="397.36" x2="439.62" y2="415.11"/>
</g>
<g id="envoltura_1">
	<polygon class="st7" points="290.7,415.02 290.7,443.28 274.37,436.98 257.99,443.28 240.81,436.98 225.1,443.28 208.15,436.98 
		192.68,443.28 176.4,436.98 160.07,443.28 142.84,436.98 127.14,443.28 110.18,436.98 94.48,443.28 78.44,436.98 61.37,443.28 
		44.87,436.17 29.45,443.28 29.45,415.23 45.78,385.27 44.87,152.61 29.45,123.12 29.45,94.7 45.78,102.11 62.16,94.7 79.34,102.11 
		95.74,94.7 112,102.11 127.47,94.7 143.75,101.31 160.82,94.7 177.31,102.11 193.24,94.7 209.06,101.31 226.13,94.7 242.62,102.11 
		258.32,94.7 275.27,102.11 290.7,94.84 290.7,123.12 274.37,152.61 273.46,385.27 290.7,413.99 	"/>
	<polyline class="st8" points="175.95,121.56 29,121.56 290.24,121.56 	"/>
	<polyline class="st8" points="177.35,416.89 30.15,416.89 291.84,416.89 	"/>
	<g id="Capa_6">
		<circle class="st9" cx="162.13" cy="282.23" r="55.33"/>
	</g>
	<g id="Capa_5">
		<g>
			<path class="st2" d="M242.49,249.42c-55.09,35.97-110.19-35.97-165.28,0c0,22.2,0,44.4,0,66.61
				c55.09-35.97,110.19,35.97,165.28,0C242.49,293.82,242.49,271.62,242.49,249.42z"/>
			<path class="st8" d="M242.49,249.42c-55.09,35.97-110.19-35.97-165.28,0c0,22.2,0,44.4,0,66.61
				c55.09-35.97,110.19,35.97,165.28,0C242.49,293.82,242.49,271.62,242.49,249.42z"/>
		</g>
	</g>
</g>
<g id="envoltura_2">
	<polygon class="st10" points="176.5,488.68 176.5,376.66 204.57,385.77 326.18,385.77 344.56,376.66 344.56,488.68 325.14,479.32 
		196.25,479.32 	"/>
	<g id="Capa_8">
		<circle class="st3" cx="263.39" cy="432.36" r="26.51"/>
	</g>
	<g id="Capa_7">
		<line class="st8" x1="197.39" y1="408.98" x2="176.5" y2="408.98"/>
		<line class="st8" x1="197.39" y1="432.88" x2="176.5" y2="432.88"/>
		<line class="st8" x1="197.17" y1="456.79" x2="176.29" y2="456.79"/>
		<path class="st8" d="M324.2,408.98"/>
		<path class="st8" d="M346.96,408.98"/>
		<path class="st8" d="M319,432.88"/>
		<path class="st8" d="M348,432.88"/>
		<path class="st8" d="M319,456.79"/>
		<path class="st8" d="M344.67,456.79"/>
		<line class="st8" x1="344.93" y1="408.84" x2="324.04" y2="408.84"/>
		<line class="st8" x1="344.93" y1="432.75" x2="324.04" y2="432.75"/>
		<line class="st8" x1="344.71" y1="456.66" x2="323.82" y2="456.66"/>
	</g>
</g>
</svg>
